<svg xmlns="http://www.w3.org/2000/svg" viewBox="0 0 170.1 89.5">
	<path d="M6.8 36c2.2-1.2 4.9-.8 6.7.9 1.3 1.3 2.7 1 4.2 1 0-.1 0-.3-.1-.4-.2-.2-.3-.5-.5-.7-2.1-3.1-6-4.5-9.6-3.6-3.5.7-6.3 3.4-7.1 6.9-.2.4-.3.8-.4 1.2h.1v2.1c.1.4.3.9.4 1.3 1.1 3.8 3.6 6.3 7.6 6.9 3.5.7 7.1-.8 9.1-3.8.1-.3.3-.5.4-.8l-.2-.3c-1.1.3-2.5.2-3.4.8-2.2 1.7-4.5 2.5-7.1 1.2-2.6-1.2-4.2-3.8-4-6.6-.1-2.6 1.5-5.1 3.9-6.1zM10.7 13.6v3.8h11.8c-1.5 4-5.7 6.6-10 6.1-4.3-.6-7.7-4-8.2-8.3-.7-4.1 1.3-8.2 5-10.3 3.7-1.9 8.2-1.1 11 1.9.2.2.4.4.7.4h4.4c-1.3-3.1-3.8-5.4-6.9-6.5-.8-.2-1.6-.5-2.4-.7h-4.6c-.6.2-1.3.4-2 .6l-.9.3C4.3 2.6 1.2 6.3.3 10.9c-.1.5-.2.9-.3 1.4v2.5c.1.5.2.9.3 1.3 1 6.5 6.6 11.3 13.2 11.3 7.4 0 13.4-6 13.4-13.4 0-.1 0-.3-.1-.4H10.7zM102.8 17c-.7 0-1.4.3-1.7.9-1.3 2.1-3.7 3.2-6.1 2.9-3.4-.4-5.9-3.1-6.2-6.5-.4-3.1 1.4-6.1 4.4-7.2 3.1-1.1 6.1-.1 8.2 2.9.2.3.5.5.9.6h6.4c0-.3 0-.5-.1-.8-1.2-4.5-4.7-8-9.2-9.3-.5-.2-1.1-.3-1.7-.5h-4.1c-.1.1-.3.2-.4.2C85 1.9 80.4 9.4 82.7 17.4c1.1 4.8 4.9 8.5 9.7 9.5 4.8 1.4 10-.2 13.3-4 1.5-1.7 2.6-3.7 3.1-5.9-2.2 0-4.1.1-6 0z"/>
	<g>
		<path d="M78.8 26.8V.5c-1.4 0-2.7.1-4.1-.1h-.1c-1-.1-1.9.5-2.1 1.5-2 5.8-4.2 11.5-6.4 17.3-.2.4-.3.8-.6 1.4-.3-.7-.4-1.1-.6-1.5-2.2-5.8-4.4-11.7-6.6-17.6-.1-.4-.5-1-.8-1h-5.2v26.3h3.5V5.1c.3.4.6.8.7 1.2 2.4 6.5 4.9 13 7.2 19.5.4 1.1 1 1.1 1.9 1.1.8.2 1.6-.3 1.8-1.1 2.4-6.6 4.9-13.1 7.3-19.6.1-.4.2-.7.4-1.1l.2.1v21.6h3.5zM78.3 33.4h2.6v18h-2.6zM96.7 36.8c1.3 1 2.9 1.5 4.5 1.1-1.5-3.6-6-5.6-10.2-4.6s-7.3 4.7-7.3 9.1c-.1 4.5 3.1 8.5 7.5 9.4 4 .8 8.5-1.2 10-4.7-1.3.2-2.6-.4-3.8.6-.5.4-1 .7-1.5 1-3.2 1.6-7 .4-8.6-2.7-1.7-2.9-1.2-6.6 1.3-8.8 2.2-2.2 5.7-2.3 8.1-.4zM49.7 26.9c.2 0 .3-.1.5-.1-.1-.5-.2-.8-.3-1.1-3-7.6-5.9-15.2-8.9-22.8C40 .5 40 .5 37.6.4c-.8-.1-1.5.4-1.7 1.2-3.1 8-6.3 16.1-9.4 24.1-.2.3-.3.7-.4 1.1 1 .1 2.1.1 3.2 0 .5-.1.9-.4 1.1-.8.9-2 1.6-4 2.4-6 .2-.4.5-.7 1-.8 2.8-.1 5.7-.1 8.6 0 .4.1.8.3 1 .7.5 1.2.9 2.5 1.4 3.7 1.3 3.4 1.3 3.4 4.9 3.3zM34.5 15.3l3.6-9.5c.2.2.3.5.4.7 1.1 2.9 2.2 5.8 3.3 8.8h-7.3zM20.6 51.5h9.6V49h-7c0-1.4.1-2.8 0-4.1-.1-1.1.3-1.3 1.3-1.3h5.8V41h-7v-5.2h7v-2.3h-9.7v18zM45.7 38.9c-.1-3-1.9-5.2-4.7-5.5-2.4-.2-4.8 0-7.4 0v18h2.7v-7.8c1.8 2.1 3.4 4.2 4.9 6.4 1.1 1.5 2.2 1.9 4.2 1.2l-4.8-6.4c.4-.1.6-.2.8-.2 2.9-.6 4.4-2.6 4.3-5.7zm-8.9 3.8c-.2 0-.6-.4-.6-.6v-6.4c.6 0 1.1 0 1.7.1.8 0 1.7.1 2.5.2 1.5.3 2.6 1.5 2.6 3 0 .5-.1.9-.2 1.4-.3 1-1.1 1.7-2.2 1.9-1.3.2-2.5.4-3.8.4zM47.4 35.7h3.4v15.7h2.7V35.8h3.4v-2.4h-9.5zM59.7 33.4h2.5v18h-2.5zM66 51.4h2.6v-7.7h6.3v-2.6c-1.8 0-3.6.1-5.3 0-.4 0-1-.4-1-.6v-4.8H75v-2.3h-9v18zM167.4 46.5c-.3-.2-.6-.5-.8-.8-2.2-3.6-4.5-7.1-6.8-10.7-1.2-1.9-1.5-2-3.9-1.5v17.9h2.6V38.1h.2c.3.4.5.7.7 1 2.3 3.7 4.7 7.3 7 11 1 1.6 1.7 1.8 3.7 1.2V33.4h-2.7v13.1zM144 33c-5.2 0-9.5 4.2-9.5 9.4 0 5.3 4.2 9.4 9.4 9.5 5.2 0 9.5-4.2 9.5-9.4S149.2 33 144 33zm6.7 9.6v.3c-.2 3.7-3.3 6.6-7 6.5-3.1-.2-5.7-2.4-6.3-5.4v-.1c0-.2-.1-.3-.1-.5v-.2-.5-.7-.1c.1-3.5 2.9-6.4 6.5-6.5.2.1.3.1.4.1h.2c.4 0 .8.1 1.1.2.2 0 .3.1.5.1.1 0 .1 0 .2.1.1 0 .2.1.3.1.1.1.3.1.4.2h.1c2.1 1 3.6 3.1 3.8 5.6-.1.2-.1.5-.1.8zM170.2 6.3V.5H156v26.3h14.1V21h-7.6v-4.7h7.7v-5.8h-7.7V6.3zM111.2 34.3c-.3-.9-.9-1-1.6-1-.7 0-1.3.1-1.6 1-2 5.4-4.1 10.7-6.1 16.1-.1.3-.2.6-.3 1h1.2c.1.1.2.1.3.1.9.1 1.7-.5 1.8-1.4.3-1.1.7-2.2 1.2-3.2.2-.4.6-.6 1-.7h4.8c.6 0 1.1.3 1.2.9.4 1.3.9 2.5 1.4 3.7.2.4.5.8.8.8h2.3c-.1-.5-.2-.8-.3-1-2-5.5-4.1-10.9-6.1-16.3zm-3.9 9.3l2.1-6.4h.3l2.2 6.3v.1h-4.6zM124.1 4.3c-.4-1.2-.6-3-1.6-3.6-1-.6-2.7-.1-4-.2-.9-.1-1.3.3-1.6 1.1-3.1 8-6.1 16-9.2 24-.1.4-.2.8-.4 1.3h3.8c1.1 0 2.4.3 3.2-.2.7-.5.9-1.8 1.2-2.8.2-.8.6-.9 1.3-.9 2 .1 3.9.1 5.8 0 1.5-.1 2.3.3 2.5 1.8.1.6.2 1 .5 1.5.2.3.5.5.8.6h6.5c-.2-.6-.3-1-.6-1.3-2.7-7.1-5.5-14.2-8.2-21.3zm-6.5 13.2c.8-2.7 1.6-5.2 2.4-7.7h.3l2.4 7.7h-5.1zM152.9 9.7c.3-5.2-3-8.8-7.4-9-3.8-.2-7.5-.1-11.3-.1-.1 0-.1 0-.2.1v26.1h6.4v-7.6l.3-.1c.2.3.4.7.6 1l3.6 6c.2.3.6.8.9.8h7.6l-6.4-9c4-1.4 5.7-4.3 5.9-8.2zm-8.4 2.5c-1.1.3-2.3.4-3.5.4-.2 0-.6-.5-.6-.7V6.4v-.1c.4 0 .8.1 1.3.1l2.7.3c1.2.2 2.1 1.4 2 2.6.1.6-.1 1.2-.4 1.7-.3.6-.8 1-1.5 1.2zM129.5 33.4h2.6v18h-2.6zM117.4 35.7h3.4v15.7h2.7V35.7h3.4v-2.3h-9.5z"/>
	</g>
	<path d="M72 57.4c-1.7 0-3 1.3-3 3v25.9c0 1.7 1.3 3 3 3h28.6V57.4H72zm20 27.1l-7-5.1-7.1 5.1 2.3-8.3-6.6-5.2 8.3-.2 3.1-8.1 3 8.1 8.4.2-6.6 5.1 2.2 8.4zM37.4 57.6c-1.7 0-3 1.3-3 3v25.9c0 1.7 1.3 3 3 3H66V57.6H37.4zm20 27.1l-7-5.1-7.1 5.1 2.3-8.3-6.6-5.2 8.3-.2 3.1-8.1 3 8.1 8.4.2-6.6 5.1 2.2 8.4zM3 57.6c-1.7 0-3 1.3-3 3v25.9c0 1.7 1.3 3 3 3h28.6V57.6H3zm20 27.1l-7-5.1-7.1 5.1 2.3-8.3-6.6-5.1 8.3-.2L16 63l3 8.1 8.4.2-6.6 5.1 2.2 8.3zm83.5-27.3c-1.7 0-3 1.3-3 3v25.9c0 1.7 1.3 3 3 3h28.6V57.4h-28.6zm20 27.1l-7-5.1-7.1 5.1 2.3-8.3-6.6-5.1 8.3-.2 3.1-8.1 3 8.1 8.4.2-6.6 5.1 2.2 8.3zm14.9-27.1c-1.7 0-3 1.3-3 3v25.9c0 1.7 1.3 3 3 3H170V57.4h-28.6zm20 27.1l-7-5.1-7.1 5.1 2.3-8.3L143 71l8.3-.2 3.1-8.1 3 8.1 8.4.2-6.6 5.1 2.2 8.4z"/>
</svg>