<svg xmlns="http://www.w3.org/2000/svg" viewBox="0 0 492.5 123.9"><path d="M490 49.8V10.1c0-4.5-3.6-8.1-8.1-8.1H47.5C22.4 2 2 22.4 2 47.5v39.7c0 4.5 3.6 8.1 8.1 8.1h388.4c-.8 2.2-1.3 4.6-1.3 7.1 0 10.9 8.8 19.7 19.7 19.7h53.5c10.9 0 19.7-8.8 19.7-19.7 0-9.2-6.3-16.8-14.8-19 9.2-8.6 14.7-20.6 14.7-33.6z" fill="none"/><path d="M121.9 44.7c-.2-.6-1-.6-1.1 0l-4 11.8c-.1.4.2.8.6.8h7.9c.4 0 .7-.4.6-.8l-4-11.8z" fill="none"/><path d="M239.2 7H47.5C25.2 7 7 25.2 7 47.5v39.7c0 1.7 1.4 3.1 3.1 3.1h229.1c1.7 0 3.1-1.4 3.1-3.1V10.1c0-1.7-1.4-3.1-3.1-3.1zM86 77.4c0 .3-.3.6-.6.6H73c-.3 0-.6-.3-.6-.6 0-.4-.4-.7-.8-.6-1.2.4-2.5.7-3.8.9-1.6.2-3.1.4-4.7.4-3.8 0-7.5-.7-11.2-2.2-3.6-1.4-6.9-3.6-9.8-6.5-2.9-2.9-5.1-6.2-6.5-9.8-1.4-3.6-2.1-7.3-2.1-11.1s.7-7.5 2.1-11.2c1.4-3.6 3.6-6.9 6.5-9.8 2.9-2.9 6.2-5.1 9.8-6.5 3.6-1.4 7.4-2.2 11.2-2.2 3.8 0 7.5.7 11.2 2.2 3.5 1.4 6.6 3.4 9.4 6.1.2.2.2.6 0 .9l-8.8 8.8c-.2.2-.6.2-.8 0-1.4-1.4-3.1-2.4-4.9-3.1-2-.8-4-1.2-6-1.2s-4 .4-6 1.2c-2 .8-3.8 1.9-5.3 3.5-1.6 1.6-2.7 3.3-3.5 5.3-.8 2-1.2 4-1.2 6s.4 4 1.2 6c.8 2 2 3.8 3.5 5.3 1.4 1.4 3 2.5 4.7 3.3 1.7.8 3.5 1.2 5.4 1.4 1.8.1 3.7 0 5.5-.5 1.7-.5 3.3-1.2 4.8-2.2.2-.1.3-.3.3-.5v-2.1c0-.3-.3-.6-.6-.6H61.2c-.3 0-.6-.3-.6-.6V45.6c0-.3.3-.6.6-.6h24.3c.3 0 .6.3.6.6v31.8zm60.2.7h-13c-.3 0-.5-.2-.6-.4l-2.1-6.3c-.1-.2-.3-.4-.6-.4h-17.7c-.3 0-.5.2-.6.4l-2.1 6.3c-.1.2-.3.4-.6.4H95.8c-.4 0-.7-.4-.6-.8l19.7-57.8c.1-.2.3-.4.6-.4h12c.3 0 .5.2.6.4l18.7 57.8c.1.4-.2.8-.6.8zm69.1 0h-12.4c-.3 0-.6-.2-.6-.6L201 57c0-.7-1-.8-1.2-.2l-7.1 20.8c-.1.2-.3.4-.6.4h-12.7c-.3 0-.5-.2-.6-.4l-7.6-21.8c-.2-.6-1.1-.5-1.2.2l-1.4 21.5c0 .3-.3.6-.6.6h-12.5c-.3 0-.6-.3-.6-.6l3.7-57.9c0-.3.3-.6.6-.6h13c.3 0 .5.2.6.4L185 54.3c.2.5 1 .5 1.1 0L198 19.4c.1-.2.3-.4.6-.4h13c.3 0 .6.2.6.6l3.4 57.9c.3.3 0 .6-.3.6z" fill="none" stroke="currentColor" stroke-width="2"/><path d="M85.4 44.9H61.2c-.3 0-.6.3-.6.6v12.4c0 .3.3.6.6.6h10.6c.3 0 .6.3.6.6v2.1c0 .2-.1.4-.3.5-1.5 1-3.1 1.8-4.8 2.2-1.8.5-3.7.7-5.5.5-1.8-.1-3.6-.6-5.4-1.4-1.7-.8-3.3-1.9-4.7-3.3-1.6-1.6-2.7-3.3-3.5-5.3-.8-2-1.2-4-1.2-6s.4-4 1.2-6c.8-2 2-3.8 3.5-5.3 1.6-1.6 3.3-2.7 5.3-3.5 2-.8 4-1.2 6-1.2s4 .4 6 1.2c1.8.7 3.4 1.7 4.9 3.1.2.2.6.2.8 0l8.8-8.8c.2-.2.2-.6 0-.9-2.8-2.7-5.9-4.7-9.4-6.1-3.6-1.4-7.4-2.2-11.2-2.2-3.8 0-7.5.7-11.2 2.2-3.6 1.4-6.9 3.6-9.8 6.5-2.9 2.9-5.1 6.2-6.5 9.8a30.9 30.9 0 0 0-2.1 11.2c0 3.8.7 7.5 2.1 11.1 1.4 3.6 3.6 6.9 6.5 9.8 2.9 2.9 6.2 5.1 9.8 6.5 3.6 1.4 7.4 2.2 11.2 2.2 1.6 0 3.1-.1 4.7-.4 1.3-.2 2.6-.5 3.8-.9.4-.1.8.2.8.6 0 .3.3.6.6.6h12.5c.3 0 .6-.3.6-.6V45.6c.1-.4-.1-.7-.5-.7zm42.7-25.4c-.1-.2-.3-.4-.6-.4h-12c-.3 0-.5.2-.6.4L95.3 77.3c-.1.4.2.8.6.8H109c.3 0 .5-.2.6-.4l2.1-6.3c.1-.2.3-.4.6-.4H130c.3 0 .5.2.6.4l2.1 6.3c.1.2.3.4.6.4h13c.4 0 .7-.4.6-.8l-18.8-57.8zm-2.9 37.8h-7.9c-.4 0-.7-.4-.6-.8l4-11.8c.2-.5 1-.5 1.1 0l3.8 11.8c.3.4 0 .8-.4.8zM211.9 19h-13c-.3 0-.5.2-.6.4l-11.9 34.9c-.2.5-1 .5-1.1 0L173 19.4c-.1-.2-.3-.4-.6-.4h-13c-.3 0-.6.2-.6.6l-3.7 57.9c0 .3.3.6.6.6h12.5c.3 0 .6-.2.6-.6l1.4-21.5c0-.7 1-.8 1.2-.2l7.6 21.8c.1.2.3.4.6.4h12.7c.3 0 .5-.2.6-.4l7.1-20.8c.2-.6 1.1-.5 1.2.2l1.2 20.5c0 .3.3.6.6.6h12.4c.3 0 .6-.3.6-.6l-3.4-57.9c-.1-.4-.4-.6-.7-.6z" fill="currentColor"/><path d="M451.3 36.1c-1-1-2.1-1.8-3.4-2.4-1.1-.5-2.3-.9-3.6-1-.3 0-.6.3-.6.6v21.1c0 .4.3.6.6.6 1.3-.1 2.5-.4 3.6-1 1.3-.6 2.5-1.4 3.4-2.4 1-1 1.7-2.2 2.3-3.5.6-1.3.8-2.8.8-4.3s-.3-2.9-.8-4.3c-.6-1.3-1.3-2.4-2.3-3.4zm-52 1.2c-1.4-1.4-3.1-2.6-5.1-3.4-1.9-.8-4-1.2-6.2-1.2s-4.3.4-6.2 1.2c-1.9.8-3.6 2-5.1 3.4-1.4 1.4-2.6 3.1-3.4 5.1-.8 1.9-1.2 4-1.2 6.2s.4 4.3 1.2 6.2c.8 1.9 2 3.6 3.4 5.1 1.4 1.4 3.1 2.6 5.1 3.4 1.9.8 4 1.2 6.2 1.2s4.3-.4 6.2-1.2c1.9-.8 3.6-2 5.1-3.4 1.4-1.4 2.6-3.1 3.4-5.1.8-1.9 1.2-4 1.2-6.2s-.4-4.3-1.2-6.2c-.8-2-1.9-3.6-3.4-5.1z" fill="none"/><path d="M485 10.1c0-1.7-1.4-3.1-3.1-3.1H252.7c-1.7 0-3.1 1.4-3.1 3.1v77.1c0 1.7 1.4 3.1 3.1 3.1h152.6c3-2.8 7-4.6 11.4-4.6H463c13-6.8 21.8-20.3 21.8-35.9V10.1zm-181.5 59c-2 3.1-4.8 5.5-8.3 7.1-1.4.6-2.8 1.1-4.2 1.4-1.4.3-2.9.4-4.3.4-1.9 0-3.7-.3-5.6-.8-1.8-.5-3.6-1.3-5.3-2.4-2.9-1.9-5.1-4.3-6.8-7.3-1.5-2.8-2.3-5.8-2.4-9.1 0-.3.3-.6.6-.6h12.4c.3 0 .6.3.6.6.1 1.3.4 2.4 1 3.2.7.9 1.3 1.5 1.8 1.8 1 .6 2 1 3.1 1 1.1.1 2.2-.2 3.3-.6.8-.3 1.4-.7 1.8-1.2.5-.5.8-1 1-1.4.2-.5.4-.9.4-1.3.1-.4.1-.8.1-1 0-.3 0-.6-.1-1s-.2-.9-.4-1.4c-.2-.5-.6-1-1-1.4-.5-.5-1.1-.9-1.8-1.2-.6-.3-1.2-.5-1.9-.7-.7-.2-1.4-.5-2.1-.7-1.3-.4-2.7-.9-4.2-1.4-1.4-.5-2.9-1.3-4.3-2.2-1.9-1.2-3.5-2.7-4.7-4.4-1.3-1.8-2.2-3.7-2.8-5.7-.6-2-.8-4.1-.6-6.3.2-2.2.8-4.2 1.8-6.2 1-1.8 2.2-3.4 3.6-4.7 1.4-1.3 3.1-2.4 4.8-3.2 1.8-.8 3.7-1.2 5.7-1.4 2-.2 4.1 0 6.2.6 2 .5 3.9 1.2 5.5 2.3 1.7 1 3.1 2.3 4.3 3.8 1.2 1.5 2.1 3.1 2.8 4.9.6 1.6.9 3.3.9 5.1 0 .3-.3.6-.6.6h-12.3c-.3 0-.6-.2-.6-.5-.1-1-.5-1.6-1.1-2-.7-.5-1.4-.8-2-.9h-.1c-.1 0-.4-.1-.7-.1-.4-.1-.9-.1-1.4 0-.5.1-1 .3-1.6.6-.5.3-1 .8-1.3 1.4-.4.9-.5 1.8-.2 2.7.3.9.8 1.7 1.6 2.2.7.4 1.6.8 2.5 1.2.9.3 1.9.7 2.9 1 .9.3 1.8.6 2.8.9.9.3 1.9.7 2.8 1.1 3.5 1.6 6.3 4 8.3 7.1 2 3.1 3 6.6 3 10.4.1 3.2-.9 6.6-2.9 9.7zm48.7-36.9c0 .3-.3.6-.6.6H341v44.7c0 .3-.3.6-.6.6h-12.5c-.3 0-.6-.3-.6-.6V32.8h-10.6c-.3 0-.6-.3-.6-.6V19.7c0-.3.3-.6.6-.6h35c.3 0 .6.3.6.6v12.5zm63 27.9c-1.6 3.6-3.7 6.7-6.3 9.4-2.7 2.7-5.8 4.8-9.4 6.3-3.6 1.6-7.4 2.3-11.5 2.3s-7.9-.8-11.5-2.3c-3.6-1.6-6.7-3.7-9.4-6.3-2.6-2.7-4.7-5.8-6.3-9.4-1.6-3.6-2.3-7.4-2.3-11.5s.8-7.9 2.3-11.5c1.6-3.6 3.7-6.7 6.3-9.4 2.6-2.7 5.8-4.8 9.4-6.3 3.6-1.6 7.4-2.3 11.5-2.3s7.9.8 11.5 2.3c3.6 1.6 6.7 3.7 9.4 6.3 2.7 2.7 4.8 5.8 6.3 9.4 1.6 3.6 2.3 7.4 2.3 11.5.1 4-.7 7.9-2.3 11.5zm50.9-6.7c-1.3 3-3 5.6-5.2 7.8-2.2 2.3-4.8 4-7.8 5.3-2.8 1.2-5.7 1.9-8.9 2-.3 0-.6.3-.6.6v8.2c0 .3-.3.6-.6.6h-12.4c-.3 0-.6-.3-.6-.6V19.7c0-.3.3-.6.6-.6h13c3.4.1 6.5.8 9.5 2.1 2.9 1.3 5.5 3.1 7.8 5.4 2.2 2.3 4 4.9 5.2 7.8 1.3 3 1.9 6.2 1.9 9.5 0 3.4-.6 6.6-1.9 9.5z" fill="none" stroke="currentColor" stroke-width="2"/><path d="M295.2 41.4c-1-.4-1.9-.8-2.8-1.1-.9-.3-1.9-.6-2.8-.9-1-.3-2-.7-2.9-1-.9-.3-1.7-.7-2.5-1.2s-1.3-1.3-1.6-2.2c-.3-.9-.2-1.8.2-2.7.3-.6.7-1.1 1.3-1.4.5-.3 1.1-.5 1.6-.6.5-.1 1-.1 1.4 0 .3.1.6.1.7.1h.1c.6.2 1.2.5 2 .9.7.4 1 1.1 1.1 2 0 .3.3.5.6.5h12.3c.3 0 .6-.3.6-.6-.1-1.8-.4-3.5-.9-5.1-.6-1.8-1.6-3.5-2.8-4.9-1.2-1.5-2.6-2.7-4.3-3.8-1.7-1-3.5-1.8-5.5-2.3-2.1-.5-4.2-.7-6.2-.6-2 .2-3.9.6-5.7 1.4-1.8.8-3.4 1.8-4.8 3.2-1.4 1.3-2.7 2.9-3.6 4.7-1 2-1.6 4.1-1.8 6.2-.2 2.2 0 4.3.6 6.3s1.5 3.9 2.8 5.7c1.3 1.8 2.9 3.2 4.7 4.4 1.4.9 2.9 1.6 4.3 2.2 1.4.5 2.8 1 4.2 1.4.8.3 1.5.5 2.1.7.7.2 1.3.5 1.9.7.8.4 1.4.8 1.8 1.2.5.5.8.9 1 1.4.2.5.4.9.4 1.4.1.4.1.8.1 1 0 .3 0 .6-.1 1s-.2.9-.4 1.3c-.2.5-.6.9-1 1.4-.5.5-1.1.9-1.8 1.2-1.1.5-2.2.7-3.3.6-1.1-.1-2.2-.4-3.1-1-.5-.3-1.2-.9-1.8-1.8-.6-.8-1-1.8-1-3.2 0-.3-.3-.6-.6-.6h-12.4c-.3 0-.6.3-.6.6.1 3.3.9 6.3 2.4 9.1 1.6 3 3.9 5.4 6.8 7.3 1.7 1.1 3.4 1.9 5.3 2.4 1.8.5 3.7.8 5.6.8 1.4 0 2.9-.1 4.3-.4 1.4-.3 2.9-.8 4.2-1.4 3.5-1.6 6.3-4 8.3-7.1 2-3.1 3-6.5 3-10.3 0-3.8-1-7.3-3-10.4-2.1-2.5-4.9-4.9-8.4-6.5zm165.7-14.9c-2.2-2.3-4.8-4-7.8-5.4-2.9-1.3-6.1-2-9.5-2.1h-13c-.3 0-.6.3-.6.6v57.8c0 .3.3.6.6.6H443c.3 0 .6-.3.6-.6v-8.2c0-.3.3-.6.6-.6 3.2-.1 6.1-.8 8.9-2 2.9-1.3 5.5-3.1 7.8-5.3 2.2-2.3 4-4.9 5.2-7.8 1.3-3 1.9-6.2 1.9-9.5 0-3.4-.6-6.6-1.9-9.5-1.2-3.1-3-5.7-5.2-8zm-7.3 21.6c-.6 1.3-1.3 2.5-2.3 3.5-1 1-2.1 1.8-3.4 2.4-1.1.5-2.3.9-3.6 1-.3 0-.6-.3-.6-.6V33.3c0-.4.3-.6.6-.6 1.3.1 2.5.4 3.6 1 1.3.6 2.5 1.4 3.4 2.4 1 1 1.7 2.2 2.3 3.5.6 1.3.8 2.8.8 4.3s-.2 2.9-.8 4.2zm-44.7-20.4c-2.7-2.7-5.8-4.8-9.4-6.3-3.6-1.6-7.4-2.3-11.5-2.3s-7.9.8-11.5 2.3c-3.6 1.6-6.7 3.7-9.4 6.3-2.6 2.7-4.7 5.8-6.3 9.4-1.6 3.6-2.3 7.4-2.3 11.5s.8 7.9 2.3 11.5c1.6 3.6 3.7 6.7 6.3 9.4 2.6 2.7 5.8 4.8 9.4 6.3 3.6 1.6 7.4 2.3 11.5 2.3s7.9-.8 11.5-2.3c3.6-1.6 6.7-3.7 9.4-6.3 2.7-2.7 4.8-5.8 6.3-9.4 1.6-3.6 2.3-7.4 2.3-11.5s-.8-7.9-2.3-11.5c-1.5-3.6-3.6-6.7-6.3-9.4zm-6.2 27.1c-.8 1.9-2 3.6-3.4 5.1-1.4 1.4-3.1 2.6-5.1 3.4-1.9.8-4 1.2-6.2 1.2s-4.3-.4-6.2-1.2c-1.9-.8-3.6-2-5.1-3.4-1.4-1.4-2.6-3.1-3.4-5.1-.8-1.9-1.2-4-1.2-6.2s.4-4.3 1.2-6.2c.8-1.9 2-3.6 3.4-5.1 1.4-1.4 3.1-2.6 5.1-3.4 1.9-.8 4-1.2 6.2-1.2s4.3.4 6.2 1.2c1.9.8 3.6 2 5.1 3.4 1.4 1.4 2.6 3.1 3.4 5.1.8 1.9 1.2 4 1.2 6.2.1 2.2-.3 4.2-1.2 6.2zm-51.1-35.7h-35c-.3 0-.6.3-.6.6v12.5c0 .3.3.6.6.6h10.6v44.7c0 .3.3.6.6.6h12.5c.3 0 .6-.3.6-.6V32.8h10.6c.3 0 .6-.3.6-.6V19.7c.1-.4-.2-.6-.5-.6zm119.7 81.8c1.8 0 2.8-.8 2.8-1.6 0-.5-.5-1.4-2.3-1.4-1.6 0-3 1.3-3.5 3.3.1-.1.4-.3.9-.3h2.1zm-59.5 1.6c0 2.6 1.8 4.5 3.8 4.5 2 0 3.8-1.9 3.8-4.5s-1.8-4.6-3.8-4.6c-2 0-3.8 2-3.8 4.6z" fill="currentColor"/><path d="M402.1 102.3c0 8.1 6.6 14.7 14.7 14.7h53.5c8.1 0 14.7-6.6 14.7-14.7s-6.6-14.7-14.7-14.7h-53.5c-8.1.1-14.7 6.7-14.7 14.7zm46.5 6.8h-2.1V95.8h2.1v13.3zm23.1-13.3c2.6 0 4.4 1.5 4.4 3.5 0 2.2-2.2 3.7-5 3.7h-2.3c-.4 0-.6.2-.6.6 0 1.7 1.9 3.3 3.4 3.3 1.2 0 2-.4 3.1-1.9l1.7 1.3c-1.2 1.5-2.6 2.8-4.8 2.8-3.4 0-5.7-3.1-5.7-6.5.1-3.4 2.4-6.8 5.8-6.8zm-19.2 5.2c0-2.8 2.2-5.2 5-5.2 2.7 0 5 2.3 5 5.2v8.1h-2.1V101c0-1.7-1.3-3.1-2.8-3.1-1.5 0-2.8 1.3-2.8 3.1v8.1h-2.1V101zm-5-9.7c.8 0 1.4.6 1.4 1.4 0 .8-.6 1.4-1.4 1.4s-1.4-.6-1.4-1.4c0-.8.6-1.4 1.4-1.4zm-8.3.1h2.1v17.7h-2.1V91.4zm-14.4 9.6c0-2.8 2.2-5.2 5-5.2 2.7 0 5 2.3 5 5.2v8.1h-2.1V101c0-1.7-1.3-3.1-2.8-3.1-1.5 0-2.8 1.3-2.8 3.1v8.1H425V101zm-3.3 1.5c0 3.6-2.6 6.6-5.9 6.6-3.6 0-5.9-3.3-5.9-6.6 0-3.6 2.6-6.7 5.9-6.7 3.6 0 5.9 3.4 5.9 6.7z" fill="currentColor"/><path d="M409.7 102.5c0 3.3 2.3 6.6 5.9 6.6 3.3 0 5.9-3.1 5.9-6.6 0-3.3-2.3-6.7-5.9-6.7-3.4 0-5.9 3.1-5.9 6.7zm9.6 0c0 2.6-1.8 4.5-3.8 4.5-2 0-3.8-1.9-3.8-4.5s1.8-4.6 3.8-4.6c2.1 0 3.8 2 3.8 4.6zm7.7-1.5c0-1.7 1.3-3.1 2.8-3.1 1.5 0 2.8 1.3 2.8 3.1v8.1h2.1V101c0-2.8-2.2-5.2-5-5.2s-5 2.4-5 5.2v8.1h2.1V101zm12.2-9.6h2.1v17.7h-2.1zm7.2 4.4h2.1v13.3h-2.1zm1.1-1.8c.8 0 1.4-.6 1.4-1.4 0-.8-.6-1.4-1.4-1.4s-1.4.6-1.4 1.4c0 .8.6 1.4 1.4 1.4zm7.2 7c0-1.7 1.3-3.1 2.8-3.1 1.5 0 2.8 1.3 2.8 3.1v8.1h2.1V101c0-2.8-2.2-5.2-5-5.2s-5 2.4-5 5.2v8.1h2.1V101zm17.1 8.1c2.2 0 3.6-1.2 4.8-2.8l-1.7-1.3c-1.1 1.5-1.9 1.9-3.1 1.9-1.4 0-3.4-1.7-3.4-3.3 0-.4.2-.6.6-.6h2.3c2.7 0 5-1.5 5-3.7 0-2-1.9-3.5-4.4-3.5-3.4 0-5.7 3.4-5.7 6.9-.2 3.3 2.2 6.4 5.6 6.4zm0-11.1c1.7 0 2.3.9 2.3 1.4 0 .8-1 1.6-2.8 1.6h-2.1c-.5 0-.8.2-.9.3.5-2.1 1.9-3.3 3.5-3.3z" fill="none"/></svg>